<?xml version="1.0" encoding="iso-8859-1"?>
<!-- Generator: Adobe Illustrator 19.0.0, SVG Export Plug-In . SVG Version: 6.00 Build 0)  -->
<svg version="1.1" id="Capa_1" xmlns="http://www.w3.org/2000/svg" xmlns:xlink="http://www.w3.org/1999/xlink" x="0px" y="0px"
	 viewBox="0 0 468.293 468.293" style="enable-background:new 0 0 468.293 468.293;" xml:space="preserve">
<path style="fill:#2D93BA;" d="M79.922,455.805V61.815c0-6.868,5.62-12.488,12.488-12.488h283.473
	c6.868,0,12.488,5.62,12.488,12.488v393.99c0,6.868-5.62,12.488-12.488,12.488H92.41C85.541,468.293,79.922,462.673,79.922,455.805z
	"/>
<polygon style="fill:#EBF0F3;" points="365.893,71.805 365.893,445.815 159.844,445.815 102.4,387.746 102.4,71.805 "/>
<polygon style="fill:#E1E6E9;" points="159.844,387.746 159.844,445.815 102.4,387.746 "/>
<g>
	<path style="fill:#E56353;" d="M312.195,89.288H162.341c-3.746,0-6.244-3.746-5.62-6.868l11.863-43.083
		c0.624-2.498,3.122-4.371,5.62-4.371h126.751c2.498,0,4.995,1.873,5.62,4.371l11.863,43.083
		C318.439,86.166,315.941,89.288,312.195,89.288z"/>
	<circle style="fill:#E56353;" cx="236.644" cy="34.966" r="34.966"/>
</g>
<path style="fill:#EBF0F3;" d="M236.644,56.195c-11.863,0-21.229-9.366-21.229-21.229s9.366-21.229,21.229-21.229
	c11.863,0,21.229,9.366,21.229,21.229S248.507,56.195,236.644,56.195z"/>
<circle style="fill:#44C4A1;" cx="234.146" cy="238.517" r="87.415"/>
<path style="fill:#EBF0F3;" d="M212.293,279.727c-2.498,0-4.995-0.624-7.493-2.498l-23.727-20.605
	c-4.371-4.371-4.995-11.239-1.249-15.61c4.371-4.371,11.239-4.995,15.61-1.249l15.61,13.737l59.317-53.073
	c4.371-4.371,11.863-3.746,15.61,0.624c4.371,4.371,3.746,11.863-0.624,15.61l-66.185,59.941
	C217.912,279.102,215.415,279.727,212.293,279.727z"/>
<g>
</g>
<g>
</g>
<g>
</g>
<g>
</g>
<g>
</g>
<g>
</g>
<g>
</g>
<g>
</g>
<g>
</g>
<g>
</g>
<g>
</g>
<g>
</g>
<g>
</g>
<g>
</g>
<g>
</g>
</svg>
