<?xml version="1.0" encoding="iso-8859-1"?>
<!-- Generator: Adobe Illustrator 19.0.0, SVG Export Plug-In . SVG Version: 6.00 Build 0)  -->
<svg version="1.1" id="Capa_1" xmlns="http://www.w3.org/2000/svg" xmlns:xlink="http://www.w3.org/1999/xlink" x="0px" y="0px"
	 viewBox="0 0 511.997 511.997" style="enable-background:new 0 0 511.997 511.997;" xml:space="preserve">
<path style="fill:#FFD33F;" d="M153.467,59.503c-0.054,22.388,18.044,40.577,40.423,40.64c15.425,0.036,29.532-8.679,36.404-22.496
	c-20.419-20.293-48.036-31.681-76.828-31.69V59.503z"/>
<path style="fill:#383856;" d="M194.107,18.863h-40.64v27.093c28.791,0.009,56.408,11.397,76.828,31.69
	c2.89-5.617,4.416-11.831,4.452-18.143C234.747,37.051,216.559,18.863,194.107,18.863z"/>
<polygon style="fill:#91CECE;" points="306.996,145.298 427.173,53.398 397.578,15.341 279.903,92.683 189.592,143.727 
	56.383,222.062 75.339,259.975 189.592,199.485 225.716,289.796 334.089,280.765 "/>
<path style="fill:#FFD33F;" d="M446.617,9.353c-7.415-9.88-21.232-12.291-31.555-5.509l-17.484,11.497l29.595,38.057l14.946-11.424
	C452.316,34.17,454.32,19.612,446.617,9.353z"/>
<path style="fill:#EA3836;" d="M443.971,474.933l-28.601-85.795l-81.28-108.373l-108.373,9.031l-72.249,108.373l-26.326,78.968
	c-4.624,13.881,2.89,28.881,16.771,33.496c13.881,4.624,28.881-2.89,33.496-16.771c0.154-0.452,0.289-0.912,0.415-1.382
	l20.799-76.259l81.28-81.28l81.28,72.249l35.592,85.425c5.301,12.878,20.04,19.01,32.918,13.709
	C441.993,501.268,448.233,487.523,443.971,474.933z"/>
<path style="fill:#FFD33F;" d="M34.618,234.869c-9.844,5.735-13.167,18.369-7.424,28.213c5.59,9.582,17.746,13.032,27.527,7.803
	l20.618-10.892l-18.965-37.931L34.618,234.869z"/>
<g>
	<path style="fill:#383856;" d="M403.981,235.609c-4.118,0-7.713-2.791-8.742-6.782c-7.098-27.572-17.538-54.187-31.085-79.23
		c-2.249-4.452-0.47-9.88,3.983-12.138c4.272-2.158,9.492-0.614,11.894,3.54c14.251,26.344,25.233,54.322,32.702,83.33
		c1.237,4.832-1.671,9.745-6.493,10.991C405.507,235.51,404.749,235.609,403.981,235.609z"/>
	<path style="fill:#383856;" d="M412.561,280.765c-4.552-0.009-8.39-3.405-8.95-7.92c-0.361-2.944-0.768-5.879-1.21-8.805
		c-0.75-4.931,2.646-9.537,7.577-10.286c4.931-0.75,9.537,2.646,10.286,7.577c0.461,3.071,0.885,6.159,1.273,9.257
		c0.614,4.949-2.908,9.456-7.857,10.07l0,0C413.31,280.719,412.94,280.756,412.561,280.765z"/>
	<path style="fill:#383856;" d="M478.587,325.92c-4.985,0-9.031-4.046-9.031-9.031c0.009-29.712-3.152-59.352-9.419-88.396
		c-1.933-8.887-4.172-17.809-6.674-26.515c-8.85-30.778-21.241-60.418-36.937-88.333c-2.447-4.353-0.903-9.853,3.45-12.3
		c4.353-2.447,9.853-0.903,12.3,3.45c16.382,29.134,29.315,60.075,38.545,92.198c2.61,9.085,4.949,18.396,6.963,27.671
		c6.548,30.308,9.844,61.222,9.835,92.226C487.618,321.874,483.581,325.92,478.587,325.92z"/>
</g>
<path style="fill:#FFAC3E;" d="M29.245,265.818c6.222,7.505,16.852,9.627,25.477,5.066l20.618-10.892l-7.288-14.585L29.245,265.818z
	"/>
<polygon style="fill:#83B2B7;" points="68.051,245.39 75.339,259.975 189.592,199.485 225.716,289.796 292.411,284.242 
	189.592,181.422 "/>
<g>
	<path style="fill:#D62121;" d="M292.411,284.242l-66.695,5.554l-72.249,108.373l-26.326,78.968
		c-4.588,13.845,2.908,28.782,16.753,33.379c0.822,0.271,1.662,0.506,2.511,0.695l25.125-113.042L292.411,284.242z"/>
	<path style="fill:#D62121;" d="M279.903,334.951l81.28,72.249l35.592,85.425c4.922,11.749,17.864,17.963,30.119,14.45
		l-47.648-108.906L279.903,334.951z"/>
</g>
<polygon style="fill:#83B2B7;" points="297.965,127.236 306.996,145.298 427.173,53.398 416.616,39.815 "/>
<g>
	<path style="fill:#FFAC3E;" d="M416.616,39.815l10.557,13.547l14.946-11.424c8.101-6.231,11.199-17.015,7.649-26.597
		L416.616,39.815z"/>
	<path style="fill:#FFAC3E;" d="M185.076,91.112c-8.561-0.018-16.888-2.754-23.788-7.821c12.987,18.116,38.211,22.28,56.327,9.293
		c5.392-3.865,9.745-8.995,12.68-14.937c-2.998-2.944-6.159-5.708-9.474-8.282C213.876,82.695,200.113,91.066,185.076,91.112z"/>
</g>
<path style="fill:#202033;" d="M217.895,26.684c9.04,12.192,10.341,28.457,3.369,41.931c-0.135,0.262-0.307,0.497-0.443,0.75
	c3.314,2.574,6.475,5.337,9.474,8.282C239.434,59.936,234.142,38.207,217.895,26.684z"/>
<g>
</g>
<g>
</g>
<g>
</g>
<g>
</g>
<g>
</g>
<g>
</g>
<g>
</g>
<g>
</g>
<g>
</g>
<g>
</g>
<g>
</g>
<g>
</g>
<g>
</g>
<g>
</g>
<g>
</g>
</svg>
