<?xml version="1.0" encoding="iso-8859-1"?>
<!-- Generator: Adobe Illustrator 19.0.0, SVG Export Plug-In . SVG Version: 6.00 Build 0)  -->
<svg version="1.1" id="Capa_1" xmlns="http://www.w3.org/2000/svg" xmlns:xlink="http://www.w3.org/1999/xlink" x="0px" y="0px"
	 viewBox="0 0 512 512" style="enable-background:new 0 0 512 512;" xml:space="preserve">
<path style="fill:#F7B64C;" d="M98.133,497.067l-3.2-5.333L92.8,489.6c0,0-2.133-4.267-4.267-8.533
	c-1.067-5.333-4.267-9.6-4.267-9.6l-25.6-9.6V480C57.6,478.933,82.133,513.067,98.133,497.067z"/>
<path style="fill:#F05540;" d="M55.467,459.733c0,0-4.267,3.2-6.4,9.6c-1.067,2.133,0,4.267,1.067,5.333
	c1.067,2.133,4.267,6.4,7.467,9.6c6.4,5.333,9.6,12.8,11.733,16s6.4,6.4,14.933,7.467s23.467,0,25.6-2.133
	c3.2-2.133,1.067-3.2-1.067-5.333c-2.133-1.067-16-10.667-16-10.667s3.2,4.267,1.067,5.333c-1.067,2.133-7.467,3.2-13.867,0
	C72.533,491.733,55.467,466.133,55.467,459.733z"/>
<path style="fill:#344A5E;" d="M116.267,237.867c0,0,2.133,35.2,0,50.133s-9.6,27.733-10.667,42.667s-17.067,76.8-18.133,90.667
	c-2.133,14.933-2.133,49.067-2.133,49.067s-11.733,5.333-19.2-1.067c-6.4-5.333-6.4-5.333-6.4-5.333l21.333-240L116.267,237.867z"/>
<path style="fill:#FFD15C;" d="M92.8,501.333L89.6,496l-2.133-2.133c0,0-2.133-4.267-3.2-8.533C83.2,480,80,475.733,80,475.733
	l-25.6-10.667l-1.067,17.067C53.333,482.133,76.8,517.333,92.8,501.333z"/>
<g>
	<path style="fill:#F3705A;" d="M51.2,462.933c0,0-4.267,3.2-6.4,9.6c-1.067,2.133-1.067,4.267,0,5.333
		c1.067,2.133,4.267,6.4,7.467,9.6c6.4,6.4,9.6,12.8,10.667,16c2.133,3.2,6.4,6.4,14.933,7.467c8.533,1.067,23.467,0,25.6-2.133
		c3.2-2.133,1.067-3.2-1.067-5.333c-2.133-2.133-16-10.667-16-10.667s2.133,4.267,1.067,5.333c-1.067,1.067-7.467,3.2-13.867,0
		C67.2,494.933,51.2,469.333,51.2,462.933z"/>
	<path style="fill:#F3705A;" d="M44.8,476.8c0,0,4.267,9.6,4.267,18.133s0,10.667,0,10.667h4.267c0,0,0-12.8,2.133-16
		c2.133-3.2,2.133-3.2,2.133-3.2l0,0L44.8,476.8z"/>
</g>
<path style="fill:#415A6B;" d="M44.8,229.333c0,0-9.6,33.067,2.133,58.667c0,0,4.267,11.733,3.2,24.533
	C49.067,326.4,48,387.2,48,402.133c0,14.933,1.067,41.6,2.133,46.933c1.067,5.333,0,11.733,0,13.867s2.133,11.733,11.733,14.933
	s17.067-2.133,17.067-2.133s-1.067-4.267-1.067-9.6c0-5.333,1.067-7.467,0-10.667s-2.133-5.333-2.133-10.667
	c0-5.333,1.067-37.333,1.067-43.733c0-6.4,14.933-88.533,14.933-88.533S90.667,276.267,93.867,272s5.333-3.2,7.467-12.8
	c2.133-8.533,5.333-23.467,5.333-23.467L44.8,229.333z"/>
<path style="fill:#2B404F;" d="M100.267,82.133c0,0,7.467,3.2,10.667,7.467c3.2,4.267,9.6,17.067,10.667,22.4
	c1.067,5.333,17.067,50.133,16,54.4c-1.067,3.2,1.067,11.733,1.067,11.733s3.2,50.133-1.067,55.467
	c-4.267,5.333-14.933,0-19.2-2.133c-4.267-2.133-4.267-96-4.267-96l8.533-12.8L100.267,82.133z"/>
<path style="fill:#FFD15C;" d="M116.267,12.8L115.2,23.467c0,0-1.067,5.333-1.067,7.467c1.067,1.067,5.333,4.267,5.333,6.4
	s-3.2,4.267-3.2,4.267s2.133,3.2,3.2,4.267c1.067,1.067,0,2.133-1.067,2.133c0,0,2.133,1.067,1.067,3.2
	c-1.067,2.133-2.133,2.133-1.067,5.333c1.067,3.2-8.533,5.333-11.733,6.4c-3.2,1.067-8.533,18.133-8.533,19.2
	s19.2,34.133,19.2,34.133l6.4,16l-13.867,13.867l-30.933-51.2c0,0,4.267-88.533,5.333-88.533C84.267,5.333,107.733,6.4,116.267,12.8
	z"/>
<path style="fill:#66C6B9;" d="M113.067,107.733c0,0,13.867,33.067-8.533,19.2l12.8,92.8c0,0,12.8-52.267,12.8-73.6
	S113.067,107.733,113.067,107.733z"/>
<path style="fill:#344A5E;" d="M60.8,74.667c0,0-14.933,8.533-19.2,16c-4.267,7.467-6.4,24.533-5.333,29.867
	c0,0,7.467,12.8,12.8,20.267c4.267,8.533,3.2,66.133-10.667,88.533c0,0,34.133,10.667,59.733,12.8s22.4-13.867,22.4-22.4
	c0-9.6,1.067-40.533,1.067-40.533s0-14.933-6.4-29.867C108.8,134.4,81.067,76.8,81.067,76.8L60.8,74.667z"/>
<path style="fill:#415A6B;" d="M91.733,93.867c0,0,12.8,22.4,18.133,33.067c5.333,10.667,12.8,35.2,11.733,51.2
	c0,0-1.067-13.867-7.467-28.8c-6.4-14.933-34.133-48-34.133-48l8.533-1.067l-12.8-3.2l-6.4-23.467l11.733-2.133L91.733,93.867z"/>
<path style="fill:#FFD15C;" d="M115.2,30.933c1.067,1.067,4.267,4.267,5.333,6.4c0,3.2-3.2,4.267-3.2,4.267L115.2,30.933z"/>
<path style="fill:#F3705A;" d="M115.2,23.467c0,0-1.067,0-4.267-3.2S105.6,11.733,99.2,9.6s-13.867,0-13.867,0s6.4,0,5.333,9.6
	c-2.133,10.667-3.2,20.267-4.267,42.667c-1.067,22.4,6.4,32,6.4,32S80,83.2,78.933,76.8c0,0,3.2,17.067,18.133,26.667
	c0,0-27.733-13.867-33.067-21.333c-5.333-7.467-21.333,6.4-22.4,12.8c0,0,2.133-12.8,4.267-18.133C48,71.467,44.8,10.667,65.067,9.6
	c0,0,1.067-9.6,21.333-9.6S124.8,8.533,115.2,23.467z"/>
<path style="fill:#415A6B;" d="M98.133,80c0,0-3.2,8.533,0,11.733c3.2,3.2,9.6,12.8,12.8,17.067c3.2,4.267,12.8,25.6,19.2,38.4
	c6.4,12.8,8.533,30.933,8.533,30.933s0-1.067,0-2.133c0-12.8-3.2-25.6-7.467-38.4c-4.267-12.8-11.733-32-14.933-36.267
	C113.067,96,98.133,80,98.133,80z"/>
<path style="fill:#FFD15C;" d="M59.733,268.8l6.4,1.067c0,0,2.133,7.467,3.2,11.733c1.067,4.267,1.067,11.733,1.067,14.933
	s0,6.4,0,6.4S65.067,304,65.067,297.6c0-6.4-1.067-10.667-2.133-13.867s-1.067-3.2-1.067-3.2L59.733,268.8z"/>
<path style="fill:#66C6B9;" d="M102.4,305.067H78.933V294.4c0-3.2-3.2-6.4-6.4-6.4h-32c-3.2,0-6.4,3.2-6.4,6.4v10.667h-25.6
	C4.267,305.067,0,309.333,0,313.6v66.133c0,4.267,4.267,8.533,8.533,8.533H102.4c4.267,0,8.533-4.267,8.533-8.533V313.6
	C110.933,309.333,107.733,305.067,102.4,305.067z M71.467,305.067h-32V294.4h32V305.067z"/>
<g>
	<rect x="16" y="305.067" style="fill:#4ABAA5;" width="8.533" height="83.2"/>
	<rect x="86.4" y="305.067" style="fill:#4ABAA5;" width="8.533" height="83.2"/>
</g>
<path style="fill:#FFD15C;" d="M44.8,276.267c0,0-1.067,6.4-1.067,9.6s0,9.6,0,9.6c0,1.067,4.267,2.133,5.333,1.067
	c0,0,0,3.2,3.2,3.2c3.2,0,1.067,0,1.067-1.067c0,0,0,2.133,3.2,2.133s2.133-1.067,2.133-2.133c0,0,1.067,2.133,3.2,2.133
	C64,300.8,64,298.667,64,297.6c0-1.067-1.067-6.4-1.067-7.467c0-1.067,2.133-6.4,2.133-7.467c0-1.067,2.133-7.467,1.067-11.733
	c-1.067-3.2-2.133-6.4-3.2-10.667c-1.067-5.333-2.133-25.6,0-35.2c2.133-9.6,1.067-34.133,1.067-34.133l-19.2,9.6c0,0,0,16,0,23.467
	s3.2,24.533,3.2,32C46.933,264.533,44.8,276.267,44.8,276.267z"/>
<path style="fill:#415A6B;" d="M36.267,136.533c-1.067-5.333-2.133-10.667-2.133-16c1.067-7.467,3.2-19.2,5.333-24.533
	c4.267-9.6,12.8-13.867,21.333-8.533s18.133,26.667,11.733,43.733c0,0,1.067,9.6-1.067,17.067s-2.133,13.867-2.133,17.067
	c0,3.2,1.067,9.6,1.067,11.733c0,2.133-2.133,4.267-2.133,6.4c0,2.133,0,13.867,0,13.867s-13.867,0-23.467,3.2v-12.8
	c0,0-5.333,0-5.333-4.267s0-3.2,0-6.4c0-3.2-2.133-7.467-3.2-12.8c-1.067-5.333-1.067-9.6,2.133-14.933
	C39.467,146.133,38.4,140.8,36.267,136.533z"/>
<polygon style="fill:#ADB3BA;" points="258.133,512 512,414.933 512,256 381.867,256 381.867,336 258.133,336 258.133,414.933 
	135.467,414.933 135.467,512 "/>
<g>
</g>
<g>
</g>
<g>
</g>
<g>
</g>
<g>
</g>
<g>
</g>
<g>
</g>
<g>
</g>
<g>
</g>
<g>
</g>
<g>
</g>
<g>
</g>
<g>
</g>
<g>
</g>
<g>
</g>
</svg>
